<mxfile host="app.diagrams.net" agent="Mozilla/5.0 (Macintosh; Intel Mac OS X 10_14_6) AppleWebKit/605.1.15 (KHTML, like Gecko) Version/14.1.2 Safari/605.1.15" version="24.8.3">
  <diagram name="Page-1" id="JNNMsCdFVjWHwH4HeEpe">
    <mxGraphModel dx="1122" dy="639" grid="1" gridSize="10" guides="1" tooltips="1" connect="1" arrows="1" fold="1" page="1" pageScale="1" pageWidth="850" pageHeight="1100" math="0" shadow="0">
      <root>
        <mxCell id="0" />
        <mxCell id="1" parent="0" />
        <mxCell id="bprFpwVtBoHuUyFs9eWT-1" value="AWS S3" style="sketch=0;outlineConnect=0;fontColor=#232F3E;gradientColor=none;fillColor=#7AA116;strokeColor=none;dashed=0;verticalLabelPosition=bottom;verticalAlign=top;align=center;html=1;fontSize=12;fontStyle=0;aspect=fixed;pointerEvents=1;shape=mxgraph.aws4.bucket;" vertex="1" parent="1">
          <mxGeometry x="592.5" y="315" width="65" height="67.6" as="geometry" />
        </mxCell>
        <mxCell id="bprFpwVtBoHuUyFs9eWT-2" value="Bucket Policies&lt;div&gt;Cross account access&lt;/div&gt;" style="verticalLabelPosition=bottom;sketch=0;html=1;fillColor=#A153A0;strokeColor=#ffffff;verticalAlign=top;align=center;points=[[0,0.5,0],[0.125,0.25,0],[0.25,0,0],[0.5,0,0],[0.75,0,0],[0.875,0.25,0],[1,0.5,0],[0.875,0.75,0],[0.75,1,0],[0.5,1,0],[0.125,0.75,0]];pointerEvents=1;shape=mxgraph.cisco_safe.compositeIcon;bgIcon=mxgraph.cisco_safe.design.blank_device;resIcon=mxgraph.cisco_safe.design.policy_2;" vertex="1" parent="1">
          <mxGeometry x="592.5" y="190" width="50" height="45" as="geometry" />
        </mxCell>
        <mxCell id="bprFpwVtBoHuUyFs9eWT-4" style="edgeStyle=orthogonalEdgeStyle;rounded=0;orthogonalLoop=1;jettySize=auto;html=1;" edge="1" parent="1" source="bprFpwVtBoHuUyFs9eWT-3" target="bprFpwVtBoHuUyFs9eWT-1">
          <mxGeometry relative="1" as="geometry" />
        </mxCell>
        <mxCell id="bprFpwVtBoHuUyFs9eWT-3" value="User with multiple&amp;nbsp;&lt;div&gt;AWS accounts&lt;/div&gt;" style="shape=image;html=1;verticalAlign=top;verticalLabelPosition=bottom;labelBackgroundColor=#ffffff;imageAspect=0;aspect=fixed;image=https://cdn2.iconfinder.com/data/icons/essential-web-2/50/user-group-team-duo-partner-128.png" vertex="1" parent="1">
          <mxGeometry x="240" y="315" width="68" height="68" as="geometry" />
        </mxCell>
        <mxCell id="bprFpwVtBoHuUyFs9eWT-5" value="User access based on S3 resource policy" style="text;html=1;align=center;verticalAlign=middle;whiteSpace=wrap;rounded=0;fontSize=15;" vertex="1" parent="1">
          <mxGeometry x="320" y="150" width="220" height="30" as="geometry" />
        </mxCell>
        <mxCell id="bprFpwVtBoHuUyFs9eWT-6" value="AWS S3" style="sketch=0;outlineConnect=0;fontColor=#232F3E;gradientColor=none;fillColor=#7AA116;strokeColor=none;dashed=0;verticalLabelPosition=bottom;verticalAlign=top;align=center;html=1;fontSize=12;fontStyle=0;aspect=fixed;pointerEvents=1;shape=mxgraph.aws4.bucket;" vertex="1" parent="1">
          <mxGeometry x="592.5" y="665" width="65" height="67.6" as="geometry" />
        </mxCell>
        <mxCell id="bprFpwVtBoHuUyFs9eWT-7" value="IAMt Policies" style="verticalLabelPosition=bottom;sketch=0;html=1;fillColor=#A153A0;strokeColor=#ffffff;verticalAlign=top;align=center;points=[[0,0.5,0],[0.125,0.25,0],[0.25,0,0],[0.5,0,0],[0.75,0,0],[0.875,0.25,0],[1,0.5,0],[0.875,0.75,0],[0.75,1,0],[0.5,1,0],[0.125,0.75,0]];pointerEvents=1;shape=mxgraph.cisco_safe.compositeIcon;bgIcon=mxgraph.cisco_safe.design.blank_device;resIcon=mxgraph.cisco_safe.design.policy_2;" vertex="1" parent="1">
          <mxGeometry x="240" y="560" width="50" height="45" as="geometry" />
        </mxCell>
        <mxCell id="bprFpwVtBoHuUyFs9eWT-8" style="edgeStyle=orthogonalEdgeStyle;rounded=0;orthogonalLoop=1;jettySize=auto;html=1;" edge="1" parent="1" source="bprFpwVtBoHuUyFs9eWT-9" target="bprFpwVtBoHuUyFs9eWT-6">
          <mxGeometry relative="1" as="geometry" />
        </mxCell>
        <mxCell id="bprFpwVtBoHuUyFs9eWT-9" value="User with EC2 access role" style="shape=image;html=1;verticalAlign=top;verticalLabelPosition=bottom;labelBackgroundColor=#ffffff;imageAspect=0;aspect=fixed;image=https://cdn2.iconfinder.com/data/icons/essential-web-2/50/user-group-team-duo-partner-128.png" vertex="1" parent="1">
          <mxGeometry x="240" y="665" width="68" height="68" as="geometry" />
        </mxCell>
        <mxCell id="bprFpwVtBoHuUyFs9eWT-10" value="User access based on IAM policy" style="text;html=1;align=center;verticalAlign=middle;whiteSpace=wrap;rounded=0;fontSize=15;" vertex="1" parent="1">
          <mxGeometry x="320" y="500" width="220" height="30" as="geometry" />
        </mxCell>
        <mxCell id="bprFpwVtBoHuUyFs9eWT-11" value="EC2 instance role" style="sketch=0;outlineConnect=0;fontColor=#232F3E;gradientColor=none;fillColor=#DD344C;strokeColor=none;dashed=0;verticalLabelPosition=bottom;verticalAlign=top;align=center;html=1;fontSize=12;fontStyle=0;aspect=fixed;pointerEvents=1;shape=mxgraph.aws4.role;" vertex="1" parent="1">
          <mxGeometry x="110" y="560" width="78" height="44" as="geometry" />
        </mxCell>
      </root>
    </mxGraphModel>
  </diagram>
</mxfile>
